<svg width="67" height="56" viewBox="0 0 67 56" fill="none" xmlns="http://www.w3.org/2000/svg">
<path fill-rule="evenodd" clip-rule="evenodd" d="M14.1922 46.1734L11.7879 40.8066L9.38623 46.1734H10.5301L10.8867 45.3737H12.689L13.0456 46.1734H14.1922ZM11.792 43.3291L12.272 44.441H11.3051L11.792 43.3291Z" fill="white"/>
<path fill-rule="evenodd" clip-rule="evenodd" d="M23.8563 43.0795C23.9853 43.1439 24.1622 43.2521 24.261 43.3465C24.5805 43.6711 24.741 44.06 24.741 44.5147C24.741 44.972 24.5805 45.361 24.261 45.6828C23.9414 46.0087 23.5532 46.1717 23.0979 46.1717H21.1406V40.9131H22.2447H22.611C23.0183 40.9131 23.3667 41.0582 23.6561 41.3499C23.9345 41.632 24.0744 41.9662 24.0744 42.351C24.0744 42.6043 23.9537 42.907 23.8563 43.0795ZM22.611 41.9415H22.1954V42.9042C22.2871 42.9002 22.416 42.8908 22.5821 42.8788L22.5904 42.8782C22.8414 42.8494 23.054 42.6632 23.054 42.3948C23.0553 42.151 22.8578 41.9415 22.611 41.9415ZM23.0992 43.8683C23.4243 43.8902 23.7096 44.1655 23.7096 44.5147C23.7096 44.8584 23.4408 45.1419 23.0992 45.1405H22.4066H22.1981V43.8656C22.2995 43.8656 22.3962 43.864 22.4911 43.8625C22.6925 43.8593 22.8857 43.8562 23.0992 43.8683Z" fill="white"/>
<path fill-rule="evenodd" clip-rule="evenodd" d="M34.8236 43.0795C34.9526 43.1439 35.1295 43.2521 35.2282 43.3465C35.5478 43.6711 35.7083 44.06 35.7083 44.5147C35.7083 44.972 35.5478 45.361 35.2282 45.6828C34.9087 46.0087 34.5205 46.1717 34.0651 46.1717H32.1079V40.9131H33.212H33.5782C33.9856 40.9131 34.334 41.0582 34.6234 41.3499C34.9018 41.632 35.0417 41.9662 35.0417 42.351C35.0417 42.6043 34.921 42.907 34.8236 43.0795ZM33.5782 41.9415H33.1626V42.9042C33.2544 42.9002 33.3833 42.8908 33.5494 42.8788L33.5577 42.8782C33.8087 42.8494 34.0213 42.6632 34.0213 42.3948C34.0226 42.151 33.8251 41.9415 33.5782 41.9415ZM34.0651 43.8683C34.3902 43.8902 34.6755 44.1655 34.6755 44.5147C34.6755 44.8584 34.408 45.1419 34.0651 45.1405H33.3725H33.164V43.8656C33.2655 43.8656 33.3621 43.864 33.457 43.8625C33.6584 43.8593 33.8516 43.8562 34.0651 43.8683Z" fill="white"/>
<path fill-rule="evenodd" clip-rule="evenodd" d="M47.3911 43.5465C47.3911 42.8112 47.1292 42.1826 46.6038 41.6581C46.0785 41.1336 45.449 40.8721 44.7152 40.8721C43.9814 40.8721 43.3518 41.1336 42.8265 41.6581C42.304 42.184 42.042 42.8139 42.042 43.5465C42.042 44.2819 42.304 44.9105 42.8265 45.4322C43.3477 45.9471 43.9773 46.2073 44.7152 46.2087C45.4517 46.2087 46.0813 45.9499 46.6038 45.4322C47.1292 44.9119 47.3911 44.2833 47.3911 43.5465ZM43.1105 43.5411C43.1105 43.1029 43.2668 42.7263 43.5809 42.4086C43.8909 42.095 44.2681 41.9389 44.7152 41.9389C45.1555 41.9389 45.5313 42.095 45.8454 42.4086C46.1608 42.7249 46.3186 43.1015 46.3186 43.5411C46.3186 43.9848 46.1608 44.3627 45.8454 44.6736C45.5299 44.9858 45.1527 45.1406 44.7152 45.1406C44.2708 45.1406 43.8922 44.9844 43.5809 44.6736C43.2668 44.36 43.1105 43.982 43.1105 43.5411Z" fill="white"/>
<path d="M57.505 43.8204V40.9008H58.5666V46.2799L55.3914 43.259V46.1786H54.3325V40.8022L57.505 43.8204Z" fill="white"/>
<path d="M37.6647 32.7139L27.1777 12.0891C26.5865 10.9278 25.5002 10.1869 24.307 9.9829C24.2919 9.98017 24.2768 9.97743 24.2603 9.97469C24.1643 9.95962 24.067 9.94867 23.9696 9.94045C23.9271 9.93634 23.8832 9.9336 23.8406 9.93087C23.7707 9.92676 23.7021 9.92676 23.6322 9.92676C23.5622 9.92676 23.4923 9.92813 23.4237 9.93087C23.3812 9.9336 23.3373 9.93634 23.2948 9.94045C23.1974 9.94867 23.1 9.95962 23.004 9.97469C22.9889 9.97743 22.9738 9.98017 22.9574 9.9829C21.7627 10.1869 20.6764 10.9278 20.0867 12.0891L9.59824 32.7139C8.60797 34.6626 9.38702 37.044 11.3388 38.0341C13.2905 39.0228 15.6757 38.245 16.6673 36.2963L23.6322 22.5966L30.597 36.2963C31.5873 38.245 33.9738 39.0228 35.9256 38.0341C37.8759 37.0454 38.655 34.6626 37.6647 32.7139Z" fill="white"/>
<path d="M33.1469 18.1748L33.1455 14.4828C33.1441 11.7084 35.3963 9.45841 38.1751 9.45567L46.7062 9.4502C47.8296 9.4502 48.8884 9.66382 49.8842 10.0911C50.8799 10.5183 51.7509 11.1045 52.497 11.8494C53.2432 12.5944 53.8343 13.4681 54.2677 14.4677C54.7011 15.4688 54.9192 16.541 54.9192 17.6886C54.9192 18.6445 54.7697 19.5332 54.4693 20.3549L54.4597 20.3795C54.0455 21.5066 53.3035 22.4843 52.3297 23.1868L42.3556 30.3777C40.8647 31.4527 38.7662 30.9446 37.9323 29.3095L33.9451 21.4874C33.4198 20.4603 33.1469 19.3251 33.1469 18.1748Z" fill="white"/>
<path d="M58.5498 31.009C58.5594 32.0005 58.3592 32.9399 57.9765 33.8273C57.5952 34.7147 57.0795 35.4939 56.4307 36.1635C55.782 36.8332 53.9331 38.2505 52.1405 38.2505C50.7949 38.2505 47.7967 38.308 46.838 38.308H44.2759C43.1923 38.308 42.2007 37.7657 41.711 36.8003L40.9964 35.2707C40.4986 34.2888 40.6823 33.3425 41.7755 32.4592L52.7782 24.4495C53.4599 23.9524 54.1032 23.4745 54.8082 23.9373C55.8931 24.6508 56.8683 25.975 57.1686 26.5612C57.1686 26.5639 58.5292 28.9371 58.5498 31.009Z" fill="url(#paint0_linear_865_2891)"/>
<defs>
<linearGradient id="paint0_linear_865_2891" x1="47.7222" y1="47.8856" x2="69.0983" y2="31.4578" gradientUnits="userSpaceOnUse">
<stop stop-color="#EF003F"/>
<stop offset="0.1392" stop-color="#FC5124"/>
<stop offset="1" stop-color="#F9C626"/>
</linearGradient>
</defs>
</svg>
