<svg  width="32" height="32" 
    viewBox="0 0 24 24" 
    xmlns="http://www.w3.org/2000/svg" 
    fill="none" 
    style="width: 32px; max-height: 32px;"
    >
    <path d="M4 11.4272V11.3043C4.01443 11.2303 4.03138 11.1566 4.04236 11.0823C4.09445 10.7506 4.11673 10.4118 4.19926 10.088C4.54443 8.75474 5.3289 7.69878 6.41211 6.84954C7.94435 5.64769 9.7248 5.09882 11.664 5.00852C12.472 4.9738 13.281 5.04528 14.0696 5.22107C15.5921 5.55247 16.9593 6.18703 18.0898 7.25466C19.3836 8.47678 20.0931 9.944 19.9902 11.7389C19.9506 12.4328 19.7602 13.0845 19.4482 13.7046C19.0253 14.5453 18.4102 15.2447 17.7318 15.8933C16.739 16.8424 15.6379 17.6613 14.4878 18.4147C13.7693 18.8852 13.0237 19.3174 12.2809 19.752C12.0964 19.8604 11.8815 19.9267 11.6725 19.9848C11.4635 20.0428 11.3383 19.9304 11.3386 19.721C11.3405 19.6243 11.349 19.5278 11.364 19.4322C11.4045 19.1448 11.467 18.8585 11.4861 18.5698C11.5175 18.087 11.4165 17.8941 10.9461 17.7565C10.7029 17.6858 10.4484 17.653 10.1983 17.6051C8.6143 17.3028 7.18592 16.6818 6.0001 15.5917C4.81429 14.5017 4.09508 13.1923 4.0364 11.5734C4.02953 11.5235 4.01733 11.4745 4 11.4272ZM11.9995 11.234C12.0566 11.3083 12.0917 11.3532 12.125 11.3986C12.6063 12.0412 13.0855 12.6849 13.5684 13.3253C13.7027 13.5032 13.8822 13.5554 14.078 13.4921C14.2738 13.4288 14.3796 13.2737 14.3796 13.0578C14.3796 12.0258 14.3796 10.9939 14.3796 9.96212C14.3796 9.68569 14.2057 9.50939 13.9425 9.50877C13.6726 9.50877 13.5032 9.67862 13.5032 9.95659C13.5032 10.5133 13.5032 11.0702 13.5032 11.6271C13.5032 11.676 13.4988 11.7245 13.4953 11.8001C13.4555 11.7503 13.4326 11.7236 13.4115 11.6956C12.9233 11.0457 12.4388 10.3921 11.9427 9.74865C11.8642 9.6473 11.7343 9.54563 11.6126 9.52167C11.3182 9.46393 11.0976 9.6645 11.0964 9.96857C11.092 10.9953 11.0942 12.0221 11.0964 13.0489C11.0979 13.105 11.1079 13.1606 11.1262 13.2138C11.1549 13.3023 11.2114 13.3796 11.2876 13.4348C11.3639 13.4899 11.456 13.5201 11.5508 13.521C11.6428 13.5189 11.732 13.489 11.8059 13.4352C11.8798 13.3815 11.9348 13.3066 11.9634 13.2209C11.986 13.1426 11.9971 13.0615 11.9963 12.9801C12.0017 12.4119 11.9995 11.8443 11.9995 11.234ZM14.8907 11.5003C14.8907 11.7967 14.8882 12.0928 14.8907 12.3892C14.8933 12.6389 14.8907 12.8898 14.914 13.1377C14.9359 13.36 15.0916 13.5105 15.3169 13.5158C15.8644 13.528 16.4129 13.5302 16.9602 13.5158C17.0194 13.5136 17.0775 13.4997 17.1312 13.4751C17.1848 13.4505 17.2328 13.4156 17.2724 13.3724C17.312 13.3293 17.3423 13.2788 17.3615 13.2239C17.3808 13.1691 17.3886 13.111 17.3844 13.0532C17.3697 12.8185 17.1689 12.6425 16.9087 12.6395C16.7001 12.6373 16.4911 12.6416 16.2812 12.6395C16.1261 12.6367 15.9046 12.6834 15.8337 12.6042C15.7502 12.512 15.8045 12.3068 15.7863 12.152C15.7678 11.9923 15.8346 11.953 15.99 11.9555C16.3232 11.9607 16.658 11.9613 16.9894 11.9343C17.0469 11.9304 17.1031 11.9152 17.1544 11.8894C17.2058 11.8636 17.2512 11.8278 17.2879 11.7843C17.3247 11.7407 17.3519 11.6903 17.3681 11.6361C17.3843 11.5819 17.389 11.525 17.3819 11.469C17.3562 11.2343 17.1673 11.0777 16.9062 11.0767C16.5827 11.0767 16.2592 11.074 15.9357 11.0783C15.8306 11.0783 15.7813 11.0494 15.7866 10.9388C15.7935 10.7963 15.7932 10.6529 15.7866 10.5088C15.7816 10.4001 15.8277 10.3669 15.9341 10.3682C16.2733 10.3725 16.6125 10.3682 16.9517 10.3697C17.113 10.3697 17.2285 10.2954 17.3148 10.1676C17.4754 9.92956 17.3578 9.50079 16.8827 9.49618C16.3922 9.49157 15.9018 9.49311 15.4113 9.49618C15.2513 9.49618 15.0818 9.52198 15.0009 9.67156C14.9358 9.79157 14.8992 9.92435 14.8936 10.0601C14.8835 10.5399 14.8907 11.0202 14.8907 11.5003ZM6.83573 11.5003C6.83573 12.0111 6.83385 12.5218 6.83573 13.0326C6.8373 13.3238 7.01396 13.5164 7.30296 13.521C7.82469 13.5292 8.34653 13.5292 8.86847 13.521C8.92892 13.5215 8.98886 13.5101 9.04473 13.4875C9.10061 13.4649 9.15127 13.4315 9.19371 13.3894C9.23615 13.3472 9.2695 13.2972 9.29179 13.2422C9.31408 13.1872 9.32486 13.1283 9.32347 13.0692C9.31939 12.8235 9.12295 12.6429 8.84964 12.6407C8.55217 12.6382 8.25344 12.6407 7.9569 12.6407C7.73725 12.6407 7.73725 12.6407 7.73725 12.4199C7.73725 11.6281 7.74259 10.8362 7.73192 10.0444C7.7273 9.9087 7.68664 9.77648 7.61393 9.66081C7.51979 9.51062 7.30987 9.4713 7.1354 9.52905C6.95246 9.59047 6.83604 9.75357 6.83479 9.96949C6.83416 10.4781 6.83573 10.9895 6.83573 11.5003ZM10.5582 11.5095C10.5582 11.0039 10.5604 10.4984 10.5582 9.99283C10.5564 9.68999 10.3781 9.50877 10.0957 9.51154C9.82741 9.514 9.6564 9.69982 9.6564 10.0005C9.65452 10.8736 9.65452 11.7468 9.6564 12.6201C9.6564 12.7737 9.64949 12.9273 9.65922 13.0808C9.67993 13.4006 9.97301 13.5953 10.2639 13.4893C10.4481 13.4224 10.5579 13.2568 10.5589 13.0286C10.5601 12.52 10.5582 12.0151 10.5582 11.5095Z" fill="#ffffff"></path>
</svg>